<?xml version="1.0" encoding="UTF-8" standalone="no"?><!DOCTYPE svg PUBLIC "-//W3C//DTD SVG 1.1//EN" "http://www.w3.org/Graphics/SVG/1.1/DTD/svg11.dtd"><svg width="100%" height="100%" viewBox="0 0 350 144" version="1.1" xmlns="http://www.w3.org/2000/svg" xmlns:xlink="http://www.w3.org/1999/xlink" xml:space="preserve" xmlns:serif="http://www.serif.com/" style="fill-rule:evenodd;clip-rule:evenodd;stroke-miterlimit:10;"><g id="Drawing_404"><ellipse cx="175" cy="132.415" rx="175" ry="11.585" style="fill:#222739;fill-opacity:0.2;"/><path d="M168.293,5.585c-28.513,0 -48.984,18.293 -48.984,60.976c0,48.374 20.471,61.179 48.984,61.179c28.512,0 50.203,-14.025 50.203,-61.179c0,-50.407 -21.691,-60.976 -50.203,-60.976Zm0.187,106.098c-19.748,0 -30.065,-11.586 -30.065,-45.091c0,-29.563 10.739,-45.153 30.487,-45.153c19.749,0 30.488,10.241 30.488,45.153c0,32.66 -11.162,45.091 -30.91,45.091Z" style="fill:#222739;fill-rule:nonzero;"/><path d="M102.236,94l-11.789,0l0,-34.714c0,-3.814 -3.138,-6.953 -6.952,-6.953l-2.762,0l0,0c-3.814,0 -6.953,3.139 -6.953,6.953l0,34.714l-33.251,0c0,0 0,0 0,0c-2.177,0 -3.969,-1.792 -3.969,-3.969c0,-0.646 0.158,-1.283 0.46,-1.854l35.193,-66.61c0.529,-1 0.805,-2.115 0.805,-3.247c0,-2.685 -1.555,-5.14 -3.983,-6.287l-2.078,-0.981c-3.331,-1.573 -7.363,-0.239 -9.1,3.009l-42.923,80.295c-0.73,1.368 -1.113,2.894 -1.113,4.445c0,5.171 4.256,9.427 9.427,9.427l50.532,0l0,21.951c0,4.571 3.762,8.333 8.334,8.333l0,0c4.571,0 8.333,-3.762 8.333,-8.333l0,-21.951l11.789,0c3.902,0 7.114,-3.212 7.114,-7.114c0,-3.903 -3.212,-7.114 -7.114,-7.114Z" style="fill:#f60948;fill-opacity:0.6;fill-rule:nonzero;"/><path d="M320.528,94l-11.788,0l0,-34.714c0,-3.814 -3.138,-6.953 -6.952,-6.953l-2.763,0l0,0c-3.814,0 -6.952,3.139 -6.952,6.953l0,34.714l-33.252,0c0,0 0,0 0,0c-2.177,0 -3.968,-1.792 -3.968,-3.969c0,-0.646 0.157,-1.283 0.459,-1.854l35.194,-66.61c0.528,-1 0.805,-2.115 0.805,-3.247c0,-2.685 -1.556,-5.14 -3.984,-6.287l-2.077,-0.981c-3.331,-1.573 -7.364,-0.239 -9.1,3.009l-42.923,80.295c-0.731,1.368 -1.113,2.894 -1.113,4.445c0,5.171 4.255,9.427 9.427,9.427l50.532,0l0,21.951c0,4.571 3.762,8.333 8.333,8.333c4.572,0 8.334,-3.762 8.334,-8.333l0,-21.951l11.788,0c3.903,0 7.114,-3.212 7.114,-7.114c0,-3.903 -3.211,-7.114 -7.114,-7.114Z" style="fill:#f60948;fill-opacity:0.6;fill-rule:nonzero;"/><path d="M105.488,89.935l-11.789,0l0,-34.715l0,0c0,-3.813 -3.138,-6.952 -6.952,-6.952l-2.762,0c-3.814,0 -6.952,3.139 -6.952,6.952l0,34.715l-33.252,0c0,0 0,0 0,0c-2.177,0 -3.969,-1.792 -3.969,-3.969c0,-0.646 0.158,-1.283 0.46,-1.854l35.193,-66.61c0.529,-1 0.805,-2.115 0.805,-3.247c0,-2.685 -1.555,-5.14 -3.983,-6.287l-2.078,-0.981c-3.331,-1.573 -7.363,-0.239 -9.1,3.009l-42.923,80.295c-0.73,1.368 -1.113,2.894 -1.113,4.445c0,5.171 4.256,9.427 9.427,9.427l50.533,0l0,21.951c0,4.571 3.761,8.333 8.333,8.333l0,0c4.571,0 8.333,-3.762 8.333,-8.333l0,-21.951l11.789,0c3.902,0 7.114,-3.212 7.114,-7.114c0,0 0,0 0,0c0,-3.903 -3.212,-7.114 -7.114,-7.114Z" style="fill:none;fill-rule:nonzero;stroke:#3f3d56;stroke-width:0.33px;"/><path d="M326.626,89.935l-11.789,0l0,-34.715c0,-3.813 -3.138,-6.952 -6.952,-6.952l-2.762,0c-3.814,0 -6.952,3.139 -6.952,6.952l0,34.715l-33.252,0c0,0 0,0 0,0c-2.177,0 -3.969,-1.792 -3.969,-3.969c0,-0.646 0.158,-1.283 0.46,-1.854l35.193,-66.61c0.529,-1 0.805,-2.115 0.805,-3.247c0,-2.685 -1.555,-5.14 -3.983,-6.287l-2.078,-0.981c-3.331,-1.573 -7.363,-0.239 -9.1,3.009l-42.922,80.295c-0.731,1.368 -1.114,2.894 -1.114,4.445c0,5.171 4.256,9.427 9.427,9.427l50.533,0l0,21.951c0,4.571 3.762,8.333 8.333,8.333c4.572,0 8.333,-3.762 8.333,-8.333l0,-21.951l11.789,0c3.903,0 7.114,-3.212 7.114,-7.114c0,-3.903 -3.211,-7.114 -7.114,-7.114Z" style="fill:none;fill-rule:nonzero;stroke:#3f3d56;stroke-width:0.33px;"/><path d="M174.797,1.927c-28.513,0 -48.984,18.293 -48.984,60.975c0,48.374 20.471,61.179 48.984,61.179c28.512,0 50.203,-14.024 50.203,-61.179c0,-50.406 -21.691,-60.975 -50.203,-60.975Zm0.187,106.097c-19.748,0 -30.065,-11.585 -30.065,-45.09c0,-29.563 10.739,-45.154 30.488,-45.154c19.748,0 30.487,10.241 30.487,45.154c0,32.66 -11.162,45.09 -30.91,45.09l0,0Z" style="fill:none;fill-rule:nonzero;stroke:#3f3d56;stroke-width:0.33px;"/><ellipse cx="155.195" cy="56.047" rx="5.64" ry="7.299" style="fill:#222739;"/><ellipse cx="185.882" cy="56.213" rx="5.64" ry="7.299" style="fill:#222739;"/><path d="M181.57,77.777c0,3.297 -4.605,5.971 -10.285,5.971c-5.679,0 -10.284,-2.674 -10.284,-5.971c0,-2.857 3.453,-5.245 8.068,-5.829c0.735,-0.097 1.475,-0.145 2.216,-0.143c1.242,-0.004 2.48,0.13 3.693,0.398c3.855,0.86 6.592,3.033 6.592,5.574Z" style="fill:#222739;fill-rule:nonzero;"/><ellipse cx="156.522" cy="54.388" rx="5.64" ry="7.299" style="fill:none;stroke:#3f3d56;stroke-width:0.33px;"/><ellipse cx="187.209" cy="54.554" rx="5.64" ry="7.299" style="fill:none;stroke:#3f3d56;stroke-width:0.33px;"/><ellipse cx="172.612" cy="76.118" rx="10.284" ry="5.972" style="fill:none;stroke:#3f3d56;stroke-width:0.33px;"/><path d="M175.1,72.701c0.003,0.417 -0.154,0.82 -0.438,1.125c-0.271,0.296 -0.653,0.466 -1.055,0.467l-3.317,0c-0.845,-0.029 -1.518,-0.746 -1.493,-1.592c-0.002,-0.323 0.093,-0.64 0.272,-0.909c0.734,-0.104 1.475,-0.155 2.216,-0.153c1.243,-0.004 2.483,0.139 3.693,0.425c0.082,0.202 0.123,0.419 0.122,0.637Z" style="fill:#fff;fill-rule:nonzero;"/><circle cx="156.522" cy="52.398" r="1.659" style="fill:#fff;"/><circle cx="187.375" cy="52.398" r="1.659" style="fill:#fff;"/><circle cx="189.034" cy="67.99" r="1.659" style="fill:#f60948;fill-opacity:0.6;"/><circle cx="148.56" cy="67.99" r="1.659" style="fill:#f60948;fill-opacity:0.6;"/></g></svg>